<?xml version="1.0" encoding="UTF-8"?>
<!DOCTYPE svg PUBLIC "-//W3C//DTD SVG 1.1//EN" "http://www.w3.org/Graphics/SVG/1.1/DTD/svg11.dtd">
<svg xmlns="http://www.w3.org/2000/svg" version="1.1" width="687px" height="291px" style="shape-rendering:geometricPrecision; text-rendering:geometricPrecision; image-rendering:optimizeQuality; fill-rule:evenodd; clip-rule:evenodd" xmlns:xlink="http://www.w3.org/1999/xlink">
<g><path style="opacity:0.978" fill="#030d49" d="M 121.5,61.5 C 114.798,61.3357 108.131,61.669 101.5,62.5C 108.029,59.1375 114.696,58.8042 121.5,61.5 Z"/></g>
<g><path style="opacity:1" fill="#010c7f" d="M 121.5,61.5 C 122.801,62.8816 123.634,64.5483 124,66.5C 127.025,68.3612 129.525,70.6945 131.5,73.5C 131.5,80.1667 131.5,86.8333 131.5,93.5C 135.458,93.7489 139.124,93.0823 142.5,91.5C 146.723,90.2723 151.056,90.4389 155.5,92C 157.66,92.9959 159.327,94.4959 160.5,96.5C 164.259,103.133 165.092,110.133 163,117.5C 161.409,122.091 158.242,124.924 153.5,126C 145.989,126.171 138.655,126.671 131.5,127.5C 131.5,138.833 131.5,150.167 131.5,161.5C 131.937,163.074 132.937,164.241 134.5,165C 137.264,165.532 139.93,166.366 142.5,167.5C 145.601,165.902 148.268,163.735 150.5,161C 157.241,159.172 162.907,160.672 167.5,165.5C 169.348,171.687 169.848,178.02 169,184.5C 166.5,188.521 164,192.521 161.5,196.5C 159.712,196.215 158.045,196.548 156.5,197.5C 154.323,199.758 151.657,201.258 148.5,202C 141.508,202.5 134.508,202.666 127.5,202.5C 127.5,201.5 127.5,200.5 127.5,199.5C 126.212,200.901 124.212,201.901 121.5,202.5C 117.778,200.753 113.778,199.419 109.5,198.5C 107.539,196.037 105.372,193.703 103,191.5C 102.517,190.552 102.351,189.552 102.5,188.5C 103.5,188.5 104.5,188.5 105.5,188.5C 105.719,187.325 105.386,186.325 104.5,185.5C 102.629,186.767 100.796,186.767 99,185.5C 97.3107,180.942 95.9774,176.275 95,171.5C 94.1832,156.455 94.3499,141.455 95.5,126.5C 94.1476,125.104 92.4809,124.437 90.5,124.5C 88.9704,124.64 87.9704,125.307 87.5,126.5C 84.0172,127.084 81.0172,126.251 78.5,124C 77.2068,123.51 75.8734,123.343 74.5,123.5C 72.7376,122.738 71.7376,121.404 71.5,119.5C 69.4778,111.035 70.4778,103.035 74.5,95.5C 77.605,95.2183 80.4383,94.2183 83,92.5C 86.4582,93.2865 89.9582,93.6198 93.5,93.5C 93.3337,86.825 93.5004,80.1583 94,73.5C 95.5184,69.151 98.0184,65.4844 101.5,62.5C 108.131,61.669 114.798,61.3357 121.5,61.5 Z"/></g>
<g><path style="opacity:1" fill="#070d5f" d="M 121.5,61.5 C 126.5,63.1667 129.833,66.5 131.5,71.5C 131.5,72.1667 131.5,72.8333 131.5,73.5C 129.525,70.6945 127.025,68.3612 124,66.5C 123.634,64.5483 122.801,62.8816 121.5,61.5 Z"/></g>
<g><path style="opacity:0.296" fill="#070e40" d="M 131.5,71.5 C 132.167,78.3447 132.833,85.3447 133.5,92.5C 136.421,91.5934 139.421,91.2601 142.5,91.5C 139.124,93.0823 135.458,93.7489 131.5,93.5C 131.5,86.8333 131.5,80.1667 131.5,73.5C 131.5,72.8333 131.5,72.1667 131.5,71.5 Z"/></g>
<g><path style="opacity:0.745" fill="#050d49" d="M 101.5,62.5 C 98.0184,65.4844 95.5184,69.151 94,73.5C 93.5004,80.1583 93.3337,86.825 93.5,93.5C 89.9582,93.6198 86.4582,93.2865 83,92.5C 80.4383,94.2183 77.605,95.2183 74.5,95.5C 75.7489,93.8639 77.4156,92.6972 79.5,92C 83.8672,91.6362 88.0339,91.4696 92,91.5C 92.3333,85.1667 92.6667,78.8333 93,72.5C 94.2545,67.7512 97.0878,64.4178 101.5,62.5 Z"/></g>
<g><path style="opacity:1" fill="#eaeaea" d="M 414.5,101.5 C 421.718,101.55 425.551,105.216 426,112.5C 426.667,138.167 426.667,163.833 426,189.5C 425.057,198.793 420.224,201.959 411.5,199C 409.959,197.421 408.792,195.587 408,193.5C 407.333,165.167 407.333,136.833 408,108.5C 409.045,104.96 411.212,102.626 414.5,101.5 Z"/></g>
<g><path style="opacity:1" fill="#f7f7f7" d="M 323.5,105.5 C 323.427,107.027 324.094,108.027 325.5,108.5C 327.405,113.195 326.072,116.695 321.5,119C 313.964,119.216 306.464,119.716 299,120.5C 298.127,120.265 297.293,119.931 296.5,119.5C 295.667,144.16 295.167,168.827 295,193.5C 291.874,199.655 287.04,201.489 280.5,199C 277.976,197.117 276.642,194.617 276.5,191.5C 276.831,167.328 276.498,143.328 275.5,119.5C 266.392,119.943 257.392,119.443 248.5,118C 245.606,115.091 244.773,111.591 246,107.5C 247.214,105.951 248.714,104.785 250.5,104C 274.167,103.333 297.833,103.333 321.5,104C 322.044,104.717 322.711,105.217 323.5,105.5 Z"/></g>
<g><path style="opacity:1" fill="#f3f3f3" d="M 512.5,139.5 C 512.5,137.5 512.5,135.5 512.5,133.5C 512.574,131.589 513.574,130.422 515.5,130C 517.473,129.505 519.473,129.338 521.5,129.5C 521.334,123.158 521.5,116.825 522,110.5C 523.19,106.559 525.857,104.226 530,103.5C 534.029,104.011 537.029,106.011 539,109.5C 539.5,116.158 539.666,122.825 539.5,129.5C 542.85,129.335 546.183,129.502 549.5,130C 552.442,130.94 553.775,132.94 553.5,136C 553.646,138.034 552.98,139.701 551.5,141C 547.623,142.369 543.623,143.202 539.5,143.5C 539.075,156.894 539.575,170.227 541,183.5C 542.473,185.007 544.307,185.674 546.5,185.5C 551.038,183.499 555.038,184.165 558.5,187.5C 560.387,192.225 559.054,195.725 554.5,198C 545.325,201.581 536.325,201.247 527.5,197C 525.383,195.269 523.883,193.102 523,190.5C 521.891,175.313 521.057,160.146 520.5,145C 520.833,144.667 521.167,144.333 521.5,144C 519.285,142.956 516.952,142.29 514.5,142C 513.619,141.292 512.953,140.458 512.5,139.5 Z"/></g>
<g><path style="opacity:0.549" fill="#747474" d="M 323.5,105.5 C 324.906,105.973 325.573,106.973 325.5,108.5C 324.094,108.027 323.427,107.027 323.5,105.5 Z"/></g>
<g><path style="opacity:0.753" fill="#050b4a" d="M 74.5,95.5 C 70.4778,103.035 69.4778,111.035 71.5,119.5C 67.0524,110.847 68.0524,102.847 74.5,95.5 Z"/></g>
<g><path style="opacity:0.239" fill="#484848" d="M 275.5,119.5 C 276.498,143.328 276.831,167.328 276.5,191.5C 275.829,168.431 275.162,145.264 274.5,122C 275.252,121.329 275.586,120.496 275.5,119.5 Z"/></g>
<g><path style="opacity:0.118" fill="#060e52" d="M 160.5,96.5 C 167.927,104.635 168.427,113.302 162,122.5C 159.559,124.969 156.726,126.802 153.5,128C 146.482,128.565 139.482,128.399 132.5,127.5C 132.167,127.5 131.833,127.5 131.5,127.5C 138.655,126.671 145.989,126.171 153.5,126C 158.242,124.924 161.409,122.091 163,117.5C 165.092,110.133 164.259,103.133 160.5,96.5 Z"/></g>
<g><path style="opacity:0.893" fill="#080e50" d="M 74.5,123.5 C 75.8734,123.343 77.2068,123.51 78.5,124C 81.0172,126.251 84.0172,127.084 87.5,126.5C 89.4147,126.216 91.0813,126.549 92.5,127.5C 86.9372,129.251 81.6038,128.751 76.5,126C 75.6195,125.292 74.9528,124.458 74.5,123.5 Z"/></g>
<g><path style="opacity:1" fill="#eeeeee" d="M 353.5,127.5 C 363.197,126.909 372.531,128.409 381.5,132C 386.815,135.795 389.648,140.962 390,147.5C 390.333,158.5 390.667,169.5 391,180.5C 391.093,183.007 391.926,185.174 393.5,187C 393.455,189.636 393.288,192.47 393,195.5C 389.236,200.537 384.736,201.37 379.5,198C 377.3,195.766 375.467,193.266 374,190.5C 361.566,200.791 348.066,202.625 333.5,196C 325.124,188.604 323.29,179.771 328,169.5C 331.092,165.072 335.259,162.239 340.5,161C 350.572,158.982 360.572,156.649 370.5,154C 371.428,153.612 372.095,152.945 372.5,152C 371.72,143.891 367.22,140.057 359,140.5C 355.719,140.955 352.552,141.789 349.5,143C 345.797,146.367 342.464,150.034 339.5,154C 329.395,154.548 326.229,150.048 330,140.5C 333.064,135.211 337.564,131.711 343.5,130C 346.991,129.262 350.325,128.429 353.5,127.5 Z M 369.5,165.5 C 370.5,165.5 371.5,165.5 372.5,165.5C 373.328,181.841 365.661,189.008 349.5,187C 341.818,181.688 341.818,176.354 349.5,171C 356.339,169.341 363.006,167.508 369.5,165.5 Z"/></g>
<g><path style="opacity:1" fill="#f0f0f0" d="M 440.5,184.5 C 440.5,181.5 440.5,178.5 440.5,175.5C 441.343,169.818 444.343,165.651 449.5,163C 456.935,160.213 464.601,158.38 472.5,157.5C 473.791,157.737 474.791,157.404 475.5,156.5C 486.839,156.321 489.172,151.821 482.5,143C 476.18,139.774 469.847,139.774 463.5,143C 459.769,146.393 456.436,150.06 453.5,154C 443.962,154.772 440.795,150.605 444,141.5C 447.83,134.69 453.663,130.523 461.5,129C 472.356,126.707 483.023,127.374 493.5,131C 499.739,134.25 503.239,139.417 504,146.5C 504.333,157.5 504.667,168.5 505,179.5C 506.648,184.744 507.315,190.077 507,195.5C 503.172,201.086 498.672,201.752 493.5,197.5C 491.476,195.31 489.643,192.977 488,190.5C 477.874,198.907 466.374,201.74 453.5,199C 446.222,196.253 441.888,191.42 440.5,184.5 Z M 484.5,165.5 C 485.239,165.369 485.906,165.536 486.5,166C 485.226,166.977 485.226,167.811 486.5,168.5C 485.859,183.175 478.192,189.342 463.5,187C 458.845,184.103 457.345,179.937 459,174.5C 459.833,173.667 460.667,172.833 461.5,172C 469.19,169.504 476.857,167.338 484.5,165.5 Z"/></g>
<g><path style="opacity:0.737" fill="#7b7b7b" d="M 512.5,133.5 C 512.5,135.5 512.5,137.5 512.5,139.5C 511.522,139.189 510.855,138.522 510.5,137.5C 510.994,135.974 511.661,134.641 512.5,133.5 Z"/></g>
<g><path style="opacity:0.171" fill="#060b32" d="M 131.5,127.5 C 131.833,127.5 132.167,127.5 132.5,127.5C 132.209,139.217 132.542,150.884 133.5,162.5C 132.833,162.167 132.167,161.833 131.5,161.5C 131.5,150.167 131.5,138.833 131.5,127.5 Z"/></g>
<g><path style="opacity:0.494" fill="#515151" d="M 475.5,156.5 C 474.791,157.404 473.791,157.737 472.5,157.5C 473.172,156.733 474.005,156.066 475,155.5C 475.399,155.728 475.565,156.062 475.5,156.5 Z"/></g>
<g><path style="opacity:1" fill="#010c7e" d="M 213.5,159.5 C 218.481,162.33 223.148,165.664 227.5,169.5C 230.483,177.959 231.149,186.626 229.5,195.5C 226.056,197.045 224.056,199.711 223.5,203.5C 220.089,204.36 216.756,205.526 213.5,207C 207.843,207.499 202.176,207.666 196.5,207.5C 195.972,206.279 195.305,205.113 194.5,204C 191.639,203.46 188.972,202.46 186.5,201C 185.285,198.625 183.619,196.791 181.5,195.5C 178.006,181.652 181.673,170.319 192.5,161.5C 199.275,158.492 206.275,157.825 213.5,159.5 Z"/></g>
<g><path style="opacity:1" fill="#050d6d" d="M 167.5,165.5 C 162.907,160.672 157.241,159.172 150.5,161C 148.268,163.735 145.601,165.902 142.5,167.5C 139.93,166.366 137.264,165.532 134.5,165C 132.937,164.241 131.937,163.074 131.5,161.5C 132.167,161.833 132.833,162.167 133.5,162.5C 135.402,163.511 137.402,163.678 139.5,163C 146.904,157.025 154.904,156.025 163.5,160C 165.464,161.451 166.797,163.284 167.5,165.5 Z"/></g>
<g><path style="opacity:0.596" fill="#060c3f" d="M 213.5,159.5 C 217.187,160.176 220.52,161.676 223.5,164C 225.464,165.451 226.797,167.284 227.5,169.5C 223.148,165.664 218.481,162.33 213.5,159.5 Z"/></g>
<g><path style="opacity:0.565" fill="#6e6e6e" d="M 484.5,165.5 C 485.209,164.596 486.209,164.263 487.5,164.5C 487.768,166.099 487.434,167.432 486.5,168.5C 485.226,167.811 485.226,166.977 486.5,166C 485.906,165.536 485.239,165.369 484.5,165.5 Z"/></g>
<g><path style="opacity:0.912" fill="#050e4c" d="M 167.5,165.5 C 173.952,177.374 171.952,187.707 161.5,196.5C 164,192.521 166.5,188.521 169,184.5C 169.848,178.02 169.348,171.687 167.5,165.5 Z"/></g>
<g><path style="opacity:0.971" fill="#060e48" d="M 192.5,161.5 C 181.673,170.319 178.006,181.652 181.5,195.5C 176.976,185.31 178.143,175.643 185,166.5C 187.128,164.192 189.628,162.526 192.5,161.5 Z"/></g>
<g><path style="opacity:0.843" fill="#060b48" d="M 227.5,169.5 C 228.79,170.058 229.623,171.058 230,172.5C 233.456,180.378 233.289,188.044 229.5,195.5C 231.149,186.626 230.483,177.959 227.5,169.5 Z"/></g>
<g><path style="opacity:0.322" fill="#535353" d="M 440.5,175.5 C 440.5,178.5 440.5,181.5 440.5,184.5C 439.609,183.739 438.942,182.739 438.5,181.5C 439.05,179.343 439.717,177.343 440.5,175.5 Z"/></g>
<g><path style="opacity:1" fill="#060e5b" d="M 109.5,198.5 C 100.261,192.387 94.7607,183.72 93,172.5C 92.5001,157.504 92.3334,142.504 92.5,127.5C 91.0813,126.549 89.4147,126.216 87.5,126.5C 87.9704,125.307 88.9704,124.64 90.5,124.5C 92.4809,124.437 94.1476,125.104 95.5,126.5C 94.3499,141.455 94.1832,156.455 95,171.5C 95.9774,176.275 97.3107,180.942 99,185.5C 100.796,186.767 102.629,186.767 104.5,185.5C 105.386,186.325 105.719,187.325 105.5,188.5C 104.5,188.5 103.5,188.5 102.5,188.5C 102.351,189.552 102.517,190.552 103,191.5C 105.372,193.703 107.539,196.037 109.5,198.5 Z"/></g>
<g><path style="opacity:1" fill="#070f47" d="M 229.5,195.5 C 228.471,198.891 226.471,201.557 223.5,203.5C 224.056,199.711 226.056,197.045 229.5,195.5 Z"/></g>
<g><path style="opacity:1" fill="#050d60" d="M 161.5,196.5 C 149.92,205.054 136.92,207.887 122.5,205C 117.547,203.857 113.214,201.69 109.5,198.5C 113.778,199.419 117.778,200.753 121.5,202.5C 124.212,201.901 126.212,200.901 127.5,199.5C 127.5,200.5 127.5,201.5 127.5,202.5C 134.508,202.666 141.508,202.5 148.5,202C 151.657,201.258 154.323,199.758 156.5,197.5C 158.045,196.548 159.712,196.215 161.5,196.5 Z"/></g>
<g><path style="opacity:1" fill="#080e59" d="M 181.5,195.5 C 183.619,196.791 185.285,198.625 186.5,201C 188.972,202.46 191.639,203.46 194.5,204C 195.305,205.113 195.972,206.279 196.5,207.5C 189.133,206.467 184.133,202.467 181.5,195.5 Z"/></g>
<g><path style="opacity:0.573" fill="#080d42" d="M 223.5,203.5 C 215.19,209.618 206.19,210.951 196.5,207.5C 202.176,207.666 207.843,207.499 213.5,207C 216.756,205.526 220.089,204.36 223.5,203.5 Z"/></g>
</svg>
